<?xml version="1.0" encoding="utf-8"?>
<!-- Generator: Adobe Illustrator 18.1.1, SVG Export Plug-In . SVG Version: 6.00 Build 0)  -->
<svg version="1.1" id="ivl_logo" xmlns="http://www.w3.org/2000/svg" xmlns:xlink="http://www.w3.org/1999/xlink" x="0px" y="0px"
	 viewBox="4.7869 11.9571 47.3519 32.8488" enable-background="new 4.7869 11.9571 47.3519 32.8488" xml:space="preserve" width="92px" height="77px">
<path fill="#55565A" d="M29.8024,14.6597c0-0.4432,0.2333-0.6765,0.6765-0.6765h0.6532c0.4432,0,0.6532,0.2333,0.6532,0.6765v0.9565
	c0,0.4432-0.2099,0.6765-0.6532,0.6765h-0.6532c-0.4432,0-0.6765-0.2333-0.6765-0.6765V14.6597z M29.8024,18.6955
	c0-0.4432,0.2333-0.6765,0.6765-0.6765h0.6532c0.4432,0,0.6532,0.2333,0.6532,0.6765v10.9643c0,0.4199-0.2099,0.6532-0.6532,0.6532
	h-0.6532c-0.4432,0-0.6765-0.2333-0.6765-0.6532V18.6955z"/>
<path fill="#55565A" d="M35.221,18.7423c-0.1166-0.4434,0.0934-0.7233,0.5133-0.7233h0.7464c0.4432,0,0.6767,0.14,0.7699,0.5366
	l2.4496,9.9144l2.4494-9.9144c0.0932-0.3966,0.35-0.5366,0.7699-0.5366h0.6998c0.4432,0,0.6299,0.2799,0.5364,0.7233
	l-2.8926,10.6375c-0.1867,0.6299-0.5833,0.9332-1.1898,0.9332h-0.793c-0.6066,0-1.0032-0.3034-1.1665-0.9332L35.221,18.7423z"/>
<path fill="#55565A" d="M51.4852,28.47c0.4199-0.0699,0.6532,0.2099,0.6532,0.6532v0.5133c0,0.4432-0.2333,0.6064-0.6065,0.6765
	c-0.3966,0.0699-0.6998,0.0932-1.0964,0.0932c-1.6796,0-2.846-0.7697-2.846-3.0559V14.4264c0-0.4432,0.2333-0.6765,0.6765-0.6765
	h0.6299c0.4432,0,0.6765,0.2333,0.6765,0.6765v12.7606c0,1.0265,0.4898,1.3765,1.1663,1.3765
	C51.042,28.5634,51.2053,28.5166,51.4852,28.47z"/>
<path fill="#55565A" d="M24.9147,22.0211c0,5.5582-4.5058,10.0639-10.0639,10.0639S4.7869,27.5792,4.7869,22.0211
	s4.5058-10.0639,10.0639-10.0639S24.9147,16.4629,24.9147,22.0211z M10.1077,14.3305c1.7292-0.6733,3.7145-0.8098,5.4538-0.0953
	c2.8437,1.1683,4.5487,4.2359,3.972,7.2649c-0.5749,3.0196-3.1737,5.2317-6.246,5.3319c1.4182,1.4439,3.5727,1.6399,5.4022,0.9547
	c3.8692-1.4493,4.5823-5.1773,4.6441-5.492c0.1236-0.6295,0.1652-1.2749,0.1194-1.9149c-0.3251-4.535-4.8599-7.6392-9.1874-7.3728
	C12.7988,13.0973,11.3606,13.5648,10.1077,14.3305z M19.557,29.7107c-1.7145,0.6675-3.6768,0.8066-5.4065,0.1144
	c-2.8522-1.1414-4.5832-4.2065-4.0281-7.236c0.5572-3.0413,3.1634-5.2792,6.2549-5.3799c-1.6605-1.6907-4.2627-1.6277-6.2479-0.5778
	c-3.6945,1.9539-5.0295,6.7337-2.8436,10.2976c1.0261,1.6729,2.6406,2.9293,4.4835,3.5858
	c0.9821,0.3498,2.0243,0.5348,3.0672,0.5362c0.5699,0.0008,1.1388-0.0583,1.699-0.163
	C17.999,30.6144,19.0414,30.0258,19.557,29.7107z M16.2174,18.2467c-1.1721,0.0842-2.5839,0.6401-3.5424,1.5986
	s-1.5144,2.3702-1.5986,3.5424c-0.0841,1.1721,0.3034,2.1044,0.3034,2.1044s0.9323,0.3876,2.1044,0.3034
	c1.1721-0.0842,2.5839-0.6401,3.5424-1.5986c0.9585-0.9585,1.5144-2.3702,1.5986-3.5424c0.0841-1.1721-0.3034-2.1044-0.3034-2.1044
	S17.3894,18.1625,16.2174,18.2467z"/>
<path fill="#008996" d="M24.4042,19.5039c-0.1774-1.0134-0.5567-1.9867-1.0868-2.8672c-0.5284-0.8778-1.2054-1.6651-1.987-2.327
	c-0.8521-0.7215-1.8306-1.289-2.874-1.6851c-1.0767-0.4087-2.2227-0.6354-3.3741-0.6644c-1.2542-0.0316-2.5074,0.1792-3.6846,0.6122
	c-1.1309,0.416-2.1885,1.0323-3.1056,1.8141c-0.901,0.768-1.6617,1.6972-2.2336,2.734c-0.5986,1.085-0.9995,2.2789-1.1738,3.5059
	c-0.1647,1.1588-0.1209,2.3418,0.1279,3.4854c0.2429,1.1164,0.6745,2.1911,1.2699,3.1661c0.1432,0.2345,0.296,0.4631,0.4578,0.6852
	c-0.7271-1.0339-1.2167-2.2324-1.4333-3.477c-0.2189-1.2573-0.1538-2.5577,0.2175-3.7801c0.3289-1.0826,0.8849-2.0933,1.6089-2.9618
	c0.7238-0.8682,1.6176-1.5969,2.6237-2.114c1.198-0.6158,2.5754-0.9471,3.9238-0.8107c1.1551,0.1168,2.24,0.6087,3.1048,1.3811
	c0.8204,0.7327,1.4337,1.7034,1.6974,2.7745c0.2741,1.1136,0.1709,2.3077-0.2487,3.3717c-0.4331,1.0984-1.2056,2.0403-2.2201,2.6494
	c-1.0861,0.652-2.3973,0.9255-3.6532,0.7575c-0.3434-0.0459-0.6827-0.1241-1.0107-0.2359c0.3249,1.1704,1.1431,2.159,2.1577,2.8072
	c1.1801,0.754,2.5991,1.0062,3.9794,0.8245c1.4205-0.187,2.7648-0.8051,3.8763-1.7018c1.0326-0.833,1.871-1.9074,2.4173-3.1171
	c0.6047-1.3389,0.8529-2.8394,0.6972-4.3011C24.4594,19.8536,24.4348,19.6782,24.4042,19.5039
	C23.9925,17.1518,24.6989,21.187,24.4042,19.5039z M22.7698,24.0524c-0.6147,1.2829-1.6077,2.384-2.8185,3.1304
	c-1.3224,0.8152-2.972,1.2208-4.5057,0.8579c-0.8078-0.1911-1.5587-0.6155-2.1404-1.2077c1.4505-0.0473,2.8878-0.5686,4.0103-1.4927
	c1.1404-0.9388,1.9093-2.2782,2.2116-3.7189c0.3277-1.5617,0.0795-3.2039-0.7296-4.5821c-0.751-1.2793-1.9389-2.3042-3.3217-2.8444
	c-1.5196-0.5937-3.2144-0.547-4.7585-0.0698c-0.1997,0.0617-0.3971,0.1306-0.5918,0.2064c1.2535-0.7661,2.6904-1.2332,4.1581-1.3235
	c1.3582-0.0836,2.7331,0.1478,3.994,0.658c1.2452,0.5038,2.3687,1.284,3.2603,2.2901c0.902,1.0177,1.5636,2.2588,1.8242,3.5985
	c0.2615,1.3444,0.1148,2.7603-0.3887,4.032C22.9109,23.7441,22.843,23.8996,22.7698,24.0524
	C22.1252,25.3979,23.4219,22.6912,22.7698,24.0524z"/>
<path fill="#55565A" d="M30.3507,37.6949c0,0.5148,0.3454,0.718,0.7722,0.718c0.42,0,0.7722-0.1964,0.7722-0.7044v-0.0068
	c0-1.1584-2.1202-0.5962-2.1202-2.3236v-0.0068c0-0.8061,0.5555-1.2667,1.3412-1.2667c0.779,0,1.3412,0.4674,1.3412,1.2735v0.0204
	c0,0.1355-0.0745,0.2032-0.2099,0.2032h-0.2168c-0.1286,0-0.1897-0.0677-0.1897-0.1829v-0.0203c0-0.481-0.3116-0.7113-0.7248-0.7113
	c-0.42,0-0.7316,0.2235-0.7316,0.7045v0.0068c0,1.1584,2.1203,0.5961,2.1203,2.3235v0.0068c0,0.8196-0.5758,1.2668-1.4023,1.2668
	c-0.7925,0-1.3683-0.4675-1.3683-1.2668v-0.0339c0-0.1355,0.0677-0.2033,0.2032-0.2033h0.2235c0.1287,0,0.1897,0.061,0.1897,0.1829
	L30.3507,37.6949L30.3507,37.6949z"/>
<path fill="#55565A" d="M32.7069,34.4095c-0.0339-0.122,0.0203-0.2303,0.1558-0.2303h0.2574c0.1355,0,0.21,0.0542,0.2371,0.1829
	l0.9755,3.9697l0.9755-3.9697c0.0271-0.1286,0.0948-0.1829,0.2303-0.1829h0.2439c0.1355,0,0.1897,0.1084,0.1558,0.2303
	l-1.1042,4.2202c-0.0474,0.1964-0.1761,0.2913-0.3725,0.2913h-0.2778c-0.1965,0-0.3251-0.0948-0.3726-0.2913L32.7069,34.4095z"/>
<path fill="#55565A" d="M36.3343,34.3824c0-0.1355,0.0745-0.2033,0.2032-0.2033h2.1745c0.1355,0,0.2033,0.0678,0.2033,0.2033v0.1693
	c0,0.1355-0.0678,0.2099-0.2033,0.2099h-1.7613v1.4564h1.3887c0.1355,0,0.2032,0.0678,0.2032,0.2033v0.1693
	c0,0.1355-0.0677,0.2099-0.2032,0.2099h-1.3887v1.5377h1.7613c0.1355,0,0.2033,0.0745,0.2033,0.2099v0.1694
	c0,0.1355-0.0678,0.2032-0.2033,0.2032h-2.1745c-0.1287,0-0.2032-0.0677-0.2032-0.2032V34.3824z"/>
<path fill="#55565A" d="M39.2805,35.5611c0-0.9687,0.6097-1.4564,1.4225-1.4564c0.8129,0,1.4226,0.4877,1.4226,1.4564v3.1567
	c0,0.1355-0.0677,0.2032-0.2032,0.2032h-0.2033c-0.1354,0-0.2032-0.0677-0.2032-0.2032V35.622c0-0.6978-0.3658-0.9348-0.8129-0.9348
	c-0.4471,0-0.8129,0.2371-0.8129,0.9348v3.0958c0,0.1355-0.0678,0.2032-0.2033,0.2032h-0.2032
	c-0.1355,0-0.2032-0.0677-0.2032-0.2032L39.2805,35.5611L39.2805,35.5611z"/>
<path fill="#55565A" d="M43.283,37.6949c0,0.5148,0.3455,0.718,0.7722,0.718c0.42,0,0.7722-0.1964,0.7722-0.7044v-0.0068
	c0-1.1584-2.1202-0.5962-2.1202-2.3236v-0.0068c0-0.8061,0.5555-1.2667,1.3412-1.2667c0.779,0,1.3412,0.4674,1.3412,1.2735v0.0204
	c0,0.1355-0.0745,0.2032-0.2099,0.2032h-0.2168c-0.1286,0-0.1897-0.0677-0.1897-0.1829v-0.0203c0-0.481-0.3116-0.7113-0.7248-0.7113
	c-0.42,0-0.7316,0.2235-0.7316,0.7045v0.0068c0,1.1584,2.1203,0.5961,2.1203,2.3235v0.0068c0,0.8196-0.5758,1.2668-1.4023,1.2668
	c-0.7925,0-1.3683-0.4675-1.3683-1.2668v-0.0339c0-0.1355,0.0677-0.2033,0.2032-0.2033h0.2235c0.1287,0,0.1897,0.061,0.1897,0.1829
	C43.283,37.6745,43.283,37.6949,43.283,37.6949z"/>
<path fill="#55565A" d="M46.225,34.1792h0.2033c0.1355,0,0.2099,0.0678,0.2099,0.2033v2.0999l1.5851-2.1609
	c0.061-0.088,0.1287-0.1423,0.2642-0.1423h0.2913c0.1287,0,0.1693,0.1558,0.1016,0.2439l-1.3413,1.7342l1.3752,2.5267
	c0.0542,0.1016,0.0068,0.2371-0.1287,0.2371h-0.2642c-0.1422,0-0.2099-0.0406-0.271-0.1626l-1.1041-2.0865l-0.5081,0.6639v1.3819
	c0,0.1355-0.0745,0.2032-0.2099,0.2032H46.225c-0.1287,0-0.2032-0.0677-0.2032-0.2032v-4.3354
	C46.0218,34.247,46.0962,34.1792,46.225,34.1792z"/>
<path fill="#55565A" d="M49.2934,35.5611c0-0.9687,0.6097-1.4564,1.4225-1.4564c0.8129,0,1.4226,0.4877,1.4226,1.4564v3.1567
	c0,0.1355-0.0677,0.2032-0.2032,0.2032H51.732c-0.1354,0-0.2032-0.0677-0.2032-0.2032v-1.3955h-1.6258v1.3955
	c0,0.1355-0.0678,0.2032-0.2033,0.2032h-0.2032c-0.1355,0-0.2032-0.0677-0.2032-0.2032L49.2934,35.5611L49.2934,35.5611z
	 M49.9031,36.7398h1.6258V35.622c0-0.6978-0.3658-0.9348-0.8129-0.9348c-0.4471,0-0.8129,0.2371-0.8129,0.9348V36.7398z"/>
<g>
	<path fill="#55565A" d="M12.4732,40.4976c-0.3861,0-0.718,0.2099-0.718,0.8331v3.1974c0,0.1355-0.0677,0.2032-0.2032,0.2032
		h-0.2032c-0.1355,0-0.2032-0.0677-0.2032-0.2032v-3.1974c0-0.6232-0.3184-0.8331-0.7113-0.8331
		c-0.3997,0-0.718,0.2099-0.718,0.8331v3.1974c0,0.1355-0.0677,0.2032-0.2032,0.2032H9.3097c-0.1355,0-0.2032-0.0677-0.2032-0.2032
		v-3.3261c0-0.8603,0.5419-1.2871,1.26-1.2871c0.4945,0,0.8874,0.2032,1.0906,0.6097c0.1964-0.4065,0.5893-0.6097,1.0839-0.6097
		c0.7248,0,1.2667,0.4268,1.2667,1.2871v3.3261c0,0.1355-0.0745,0.2032-0.21,0.2032h-0.2032c-0.1355,0-0.2032-0.0677-0.2032-0.2032
		v-3.1974C13.1913,40.7076,12.8729,40.4976,12.4732,40.4976z"/>
	<path fill="#55565A" d="M14.7561,39.9895h0.2032c0.1355,0,0.21,0.0678,0.21,0.2033v4.3354c0,0.1355-0.0745,0.2032-0.21,0.2032
		h-0.2032c-0.1287,0-0.2032-0.0677-0.2032-0.2032v-4.3354C14.5528,40.0573,14.6274,39.9895,14.7561,39.9895z"/>
	<g>
		<path fill="#55565A" d="M15.9144,40.1928c0-0.1355,0.0745-0.2033,0.2032-0.2033h0.2032c0.1355,0,0.21,0.0678,0.21,0.2033v3.956
			h1.5919c0.1355,0,0.2032,0.0745,0.2032,0.2099v0.1694c0,0.1355-0.0677,0.2032-0.2032,0.2032h-2.0051
			c-0.1287,0-0.2032-0.0677-0.2032-0.2032V40.1928z"/>
		<path fill="#55565A" d="M20.5209,40.1928c0-0.1355,0.0677-0.2033,0.2032-0.2033h0.2032c0.1355,0,0.2032,0.0678,0.2032,0.2033
			v3.2786c0,0.8874-0.5623,1.3345-1.3142,1.3345c-0.752,0-1.3142-0.4472-1.3142-1.3345v-0.0542
			c0-0.1355,0.0677-0.2032,0.2032-0.2032h0.2236c0.1287,0,0.1829,0.0609,0.1829,0.1829v0.0203c0,0.6029,0.3184,0.8061,0.7045,0.8061
			c0.3861,0,0.7045-0.2032,0.7045-0.8061C20.5209,43.4172,20.5209,40.1928,20.5209,40.1928z"/>
	</g>
	<path fill="#55565A" d="M23.1896,39.9151c0.8196,0,1.4293,0.4877,1.4293,1.4564v1.9847c0,0.9687-0.6097,1.4497-1.4293,1.4497
		c-0.8129,0-1.4226-0.481-1.4226-1.4497v-1.9847C21.767,40.4028,22.3767,39.9151,23.1896,39.9151z M22.9457,39.3663
		c0,0.1355-0.0677,0.1964-0.1964,0.1964h-0.2439c-0.1287,0-0.1964-0.0609-0.1964-0.1964v-0.2507
		c0-0.1287,0.0677-0.1897,0.1964-0.1897h0.2439c0.1287,0,0.1964,0.0609,0.1964,0.1897V39.3663z M22.3767,43.2885
		c0,0.6978,0.3726,0.9348,0.8129,0.9348c0.4471,0,0.8129-0.2371,0.8129-0.9348v-1.8561c0-0.6978-0.3658-0.9348-0.8129-0.9348
		c-0.4403,0-0.8129,0.237-0.8129,0.9348V43.2885z M24.0702,39.3663c0,0.1355-0.0677,0.1964-0.1964,0.1964h-0.2439
		c-0.1287,0-0.1964-0.0609-0.1964-0.1964v-0.2507c0-0.1287,0.0677-0.1897,0.1964-0.1897h0.2439
		c0.1287,0,0.1964,0.0609,0.1964,0.1897V39.3663z"/>
	<path fill="#55565A" d="M25.4586,39.9895h0.2032c0.1355,0,0.21,0.0678,0.21,0.2033v4.3354c0,0.1355-0.0745,0.2032-0.21,0.2032
		h-0.2032c-0.1287,0-0.2032-0.0677-0.2032-0.2032v-4.3354C25.2553,40.0573,25.3298,39.9895,25.4586,39.9895z"/>
	<path fill="#55565A" d="M26.5161,41.3715c0-0.9687,0.6097-1.4564,1.4226-1.4564c0.8129,0,1.4226,0.4877,1.4226,1.4564v3.1567
		c0,0.1355-0.0677,0.2032-0.2032,0.2032h-0.2033c-0.1355,0-0.2032-0.0677-0.2032-0.2032v-3.0958
		c0-0.6978-0.3658-0.9348-0.8129-0.9348c-0.4471,0-0.8129,0.237-0.8129,0.9348v3.0958c0,0.1355-0.0678,0.2032-0.2033,0.2032h-0.2032
		c-0.1355,0-0.2033-0.0677-0.2033-0.2032C26.5161,44.5282,26.5161,41.3715,26.5161,41.3715z"/>
	<path fill="#55565A" d="M30.3503,43.5053c0,0.5148,0.3454,0.718,0.7722,0.718c0.42,0,0.7723-0.1964,0.7723-0.7044v-0.0068
		c0-1.1584-2.1203-0.5962-2.1203-2.3236v-0.0068c0-0.8061,0.5555-1.2667,1.3412-1.2667c0.7791,0,1.3413,0.4674,1.3413,1.2735v0.0204
		c0,0.1355-0.0746,0.2032-0.21,0.2032h-0.2167c-0.1287,0-0.1897-0.0677-0.1897-0.1829v-0.0203c0-0.481-0.3116-0.7113-0.7248-0.7113
		c-0.42,0-0.7316,0.2235-0.7316,0.7045v0.0068c0,1.1584,2.1203,0.5961,2.1203,2.3235v0.0068c0,0.8196-0.5758,1.2668-1.4023,1.2668
		c-0.7925,0-1.3683-0.4675-1.3683-1.2668v-0.0339c0-0.1355,0.0677-0.2033,0.2032-0.2033h0.2236c0.1287,0,0.1897,0.061,0.1897,0.1829
		L30.3503,43.5053L30.3503,43.5053z"/>
	<path fill="#55565A" d="M33.781,40.5721h-0.8806c-0.1355,0-0.2033-0.0745-0.2033-0.2099v-0.1693
		c0-0.1355,0.0678-0.2033,0.2033-0.2033h2.3844c0.1355,0,0.2033,0.0678,0.2033,0.2033v0.1693c0,0.1355-0.0678,0.2099-0.2033,0.2099
		h-0.8874v3.9561c0,0.1355-0.0677,0.2032-0.2032,0.2032H33.991c-0.1355,0-0.2099-0.0677-0.2099-0.2032L33.781,40.5721
		L33.781,40.5721z"/>
	<path fill="#55565A" d="M36.0639,39.9895h0.2032c0.1355,0,0.2099,0.0678,0.2099,0.2033v4.3354
		c0,0.1355-0.0745,0.2032-0.2099,0.2032h-0.2032c-0.1287,0-0.2033-0.0677-0.2033-0.2032v-4.3354
		C35.8606,40.0573,35.9352,39.9895,36.0639,39.9895z"/>
	<path fill="#55565A" d="M37.9334,40.5721h-0.8806c-0.1355,0-0.2032-0.0745-0.2032-0.2099v-0.1693
		c0-0.1355,0.0677-0.2033,0.2032-0.2033h2.3845c0.1355,0,0.2032,0.0678,0.2032,0.2033v0.1693c0,0.1355-0.0677,0.2099-0.2032,0.2099
		h-0.8874v3.9561c0,0.1355-0.0678,0.2032-0.2033,0.2032h-0.2032c-0.1355,0-0.21-0.0677-0.21-0.2032V40.5721z"/>
	<path fill="#55565A" d="M40.2163,39.9895h0.2033c0.1355,0,0.2032,0.0678,0.2032,0.2033v3.0957
		c0,0.6978,0.3658,0.9348,0.8129,0.9348c0.4471,0,0.8129-0.2371,0.8129-0.9348v-3.0957c0-0.1355,0.0678-0.2033,0.2033-0.2033h0.2032
		c0.1355,0,0.2033,0.0678,0.2033,0.2033v3.1634c0,0.9687-0.6097,1.4497-1.4226,1.4497c-0.8129,0-1.4226-0.481-1.4226-1.4497v-3.1634
		C40.0131,40.0573,40.0808,39.9895,40.2163,39.9895z"/>
	<path fill="#55565A" d="M44.3147,40.5721H43.434c-0.1355,0-0.2033-0.0745-0.2033-0.2099v-0.1693
		c0-0.1355,0.0678-0.2033,0.2033-0.2033h2.3844c0.1355,0,0.2033,0.0678,0.2033,0.2033v0.1693c0,0.1355-0.0678,0.2099-0.2033,0.2099
		h-0.8874v3.9561c0,0.1355-0.0677,0.2032-0.2032,0.2032h-0.2033c-0.1355,0-0.2099-0.0677-0.2099-0.2032L44.3147,40.5721
		L44.3147,40.5721z"/>
	<path fill="#55565A" d="M46.3943,40.1928c0-0.1355,0.0745-0.2033,0.2032-0.2033h2.1745c0.1355,0,0.2033,0.0678,0.2033,0.2033
		v0.1693c0,0.1355-0.0678,0.2099-0.2033,0.2099h-1.7613v1.4564h1.3887c0.1355,0,0.2032,0.0678,0.2032,0.2033v0.1693
		c0,0.1355-0.0677,0.2099-0.2032,0.2099h-1.3887v1.5377h1.7613c0.1355,0,0.2033,0.0745,0.2033,0.2099v0.1694
		c0,0.1355-0.0678,0.2032-0.2033,0.2032h-2.1745c-0.1287,0-0.2032-0.0677-0.2032-0.2032V40.1928z"/>
	<path fill="#55565A" d="M50.4317,40.5721H49.551c-0.1355,0-0.2032-0.0745-0.2032-0.2099v-0.1693
		c0-0.1355,0.0677-0.2033,0.2032-0.2033h2.3845c0.1355,0,0.2032,0.0678,0.2032,0.2033v0.1693c0,0.1355-0.0677,0.2099-0.2032,0.2099
		h-0.8874v3.9561c0,0.1355-0.0678,0.2032-0.2033,0.2032h-0.2032c-0.1355,0-0.21-0.0677-0.21-0.2032V40.5721z"/>
</g>
</svg>
